<?xml version="1.0" encoding="UTF-8"?>
<svg width="18px" height="18px" viewBox="0 0 18 18" version="1.1" xmlns="http://www.w3.org/2000/svg" xmlns:xlink="http://www.w3.org/1999/xlink">
    <title>g缺陷备份</title>
    <defs>
        <filter id="filter-1">
            <feColorMatrix in="SourceGraphic" type="matrix" values="0 0 0 0 1.000000 0 0 0 0 1.000000 0 0 0 0 1.000000 0 0 0 1.000000 0"></feColorMatrix>
        </filter>
    </defs>
    <g id="页面-1" stroke="none" stroke-width="1" fill="none" fill-rule="evenodd" opacity="0.495978219">
        <g filter="url(#filter-1)" id="g缺陷备份">
            <g>
                <rect id="矩形" fill="#000000" fill-rule="nonzero" opacity="0" x="0" y="0" width="18" height="18"></rect>
                <path d="M16.7175,14.055 L9.98625001,2.80499999 C9.77999999,2.45624999 9.40874999,2.25 9,2.25 C8.59125001,2.25 8.22000001,2.45624999 8.01374999,2.80499999 L1.2825,14.055 C1.07625001,14.4075 1.07249999,14.82375 1.27499999,15.17625 C1.47749999,15.53625 1.84874999,15.75 2.26875001,15.75 L15.73125,15.75 C16.15125,15.75 16.5225,15.53625 16.725,15.17625 C16.82625,15.00375 16.875,14.8125 16.875,14.625 C16.875,14.43 16.8225,14.235 16.7175,14.055 L16.7175,14.055 Z M9,13.5 C8.58749999,13.5 8.24999999,13.1625 8.24999999,12.75 C8.24999999,12.3375 8.58749999,12 9,12 C9.41250001,12 9.74999999,12.3375 9.74999999,12.75 C9.74999999,13.1625 9.41250001,13.5 9,13.5 L9,13.5 Z M8.62500001,6.75 C8.62500001,6.54375001 8.79375001,6.37500001 9,6.37500001 C9.20624999,6.37500001 9.37499999,6.54375001 9.37499999,6.75 L9.37499999,10.875 C9.37499999,11.08125 9.20624999,11.25 9,11.25 C8.89875,11.25 8.80875,11.2125 8.73374999,11.13375 C8.66278325,11.0665911 8.62331848,10.9726922 8.62500001,10.875 L8.62500001,6.75 Z" id="形状" fill="#000000" fill-rule="nonzero"></path>
            </g>
        </g>
    </g>
</svg>