<?xml version="1.0" encoding="UTF-8"?>
<svg width="19px" height="19px" viewBox="0 0 19 19" version="1.1" xmlns="http://www.w3.org/2000/svg" xmlns:xlink="http://www.w3.org/1999/xlink">
    <title>记录-面备份</title>
    <defs>
        <filter id="filter-1">
            <feColorMatrix in="SourceGraphic" type="matrix" values="0 0 0 0 1.000000 0 0 0 0 1.000000 0 0 0 0 1.000000 0 0 0 1.000000 0"></feColorMatrix>
        </filter>
    </defs>
    <g id="页面-1" stroke="none" stroke-width="1" fill="none" fill-rule="evenodd" opacity="0.495978219">
        <g filter="url(#filter-1)" id="记录-面备份">
            <g>
                <rect id="矩形" fill="#000000" fill-rule="nonzero" opacity="0" x="0" y="0" width="19" height="19"></rect>
                <path d="M16.224139,17.7814442 L4.35781141,17.7814442 C3.92089863,17.7814442 3.56673177,17.4272773 3.56673177,16.9903645 L3.56673175,14.2215478 L1.98455347,14.2215478 L1.98455347,11.0571912 L3.56673175,11.0571912 L3.56673175,7.89283466 L1.98455347,7.89283466 L1.98455347,4.72847808 L3.56673175,4.72847808 L3.56673175,1.95966135 C3.56673175,1.52274858 3.92089863,1.16858171 4.35781139,1.16858171 L16.224139,1.16858171 C16.6610518,1.16858171 17.0152187,1.5227486 17.0152187,1.95966135 L17.0152187,16.9903455 C17.0152187,17.4272773 16.6610708,17.7814442 16.224139,17.7814442 Z M11.4776232,5.12401791 L5.93998969,5.12401791 L5.93998969,5.91511655 L11.4776232,5.91511655 L11.4776232,5.12401791 L11.4776232,5.12401791 Z M14.6419608,9.07947311 L5.93998969,9.07947311 L5.93998969,9.87055275 L14.6419608,9.87055275 L14.6419608,9.07947311 Z M14.6419608,13.0349093 L5.93998969,13.0349093 L5.93998969,13.825989 L14.6419608,13.825989 L14.6419608,13.0349093 Z" id="形状" fill="#000000" fill-rule="nonzero"></path>
            </g>
        </g>
    </g>
</svg>