<?xml version="1.0" encoding="UTF-8"?>
<svg width="16px" height="16px" viewBox="0 0 16 16" version="1.1" xmlns="http://www.w3.org/2000/svg" xmlns:xlink="http://www.w3.org/1999/xlink">
    <title>路线备份</title>
    <defs>
        <filter id="filter-1">
            <feColorMatrix in="SourceGraphic" type="matrix" values="0 0 0 0 1.000000 0 0 0 0 1.000000 0 0 0 0 1.000000 0 0 0 1.000000 0"></feColorMatrix>
        </filter>
    </defs>
    <g id="页面-1" stroke="none" stroke-width="1" fill="none" fill-rule="evenodd" opacity="0.495978219">
        <g filter="url(#filter-1)" id="路线备份">
            <g>
                <rect id="矩形" fill="#000000" fill-rule="nonzero" opacity="0" x="0" y="0" width="16" height="16"></rect>
                <path d="M15.7542857,2.22285714 L13.9142857,0.385714281 C13.5843286,0.0754777843 13.0699572,0.0754777843 12.74,0.385714281 L10.9028571,2.22571428 C10.7467011,2.38120242 10.6589171,2.59249089 10.6589171,2.81285714 C10.6589171,3.03322339 10.7467011,3.24451186 10.9028571,3.4 C11.0583453,3.55615609 11.2696337,3.64394003 11.49,3.64394003 C11.7103663,3.64394003 11.9216547,3.55615609 12.0771429,3.4 L12.5257143,2.95142858 L12.5257143,12.0942857 C12.5522546,12.7663634 12.2088348,13.3990648 11.6308196,13.7429998 C11.0528045,14.0869347 10.3329098,14.0869347 9.75489465,13.7429998 C9.1768795,13.3990648 8.83345964,12.7663634 8.86,12.0942857 L8.86,4.14571428 C8.80584455,2.2493059 7.25289577,0.740071364 5.35571429,0.740071364 C3.45853281,0.740071364 1.90558403,2.2493059 1.85142858,4.14571428 L1.85142858,13.0285714 L1.42857142,12.5914286 C1.1035124,12.2647916 0.575208417,12.2635124 0.248571442,12.5885714 C-0.078065533,12.9136305 -0.0793447275,13.4419344 0.245714281,13.7685714 L2.08571428,15.6057143 C2.41023134,15.9293874 2.93548294,15.9293874 3.26,15.6057143 L5.09714286,13.7657143 C5.3937946,13.4371153 5.38094185,12.933696 5.06790866,12.6206628 C4.75487546,12.3076296 4.25145614,12.2947768 3.92285714,12.5914286 L3.51714286,13 L3.51714286,4.14285714 C3.55613011,3.15251139 4.37031571,2.36974744 5.36142857,2.36974744 C6.35254143,2.36974744 7.16672703,3.15251139 7.20571428,4.14285714 L7.20571428,12.0828571 C7.25977956,13.9730175 8.80763802,15.4772348 10.6985714,15.4772348 C12.5895048,15.4772348 14.1373633,13.9730175 14.1914286,12.0828571 L14.1914286,3.00285714 L14.5714286,3.39714286 C14.9000276,3.6937946 15.4034469,3.68094185 15.7164801,3.36790866 C16.0295133,3.05487546 16.042366,2.55145614 15.7457143,2.22285714 L15.7542857,2.22285714 Z" id="路径" fill="#000000" fill-rule="nonzero"></path>
            </g>
        </g>
    </g>
</svg>