<?xml version="1.0" encoding="UTF-8"?>
<svg width="19px" height="19px" viewBox="0 0 19 19" version="1.1" xmlns="http://www.w3.org/2000/svg" xmlns:xlink="http://www.w3.org/1999/xlink">
    <title>文本备份</title>
    <defs>
        <filter id="filter-1">
            <feColorMatrix in="SourceGraphic" type="matrix" values="0 0 0 0 1.000000 0 0 0 0 1.000000 0 0 0 0 1.000000 0 0 0 1.000000 0"></feColorMatrix>
        </filter>
    </defs>
    <g id="页面-1" stroke="none" stroke-width="1" fill="none" fill-rule="evenodd" opacity="0.495978219">
        <g filter="url(#filter-1)" id="文本备份">
            <g>
                <rect id="矩形" fill="#000000" fill-rule="nonzero" opacity="0" x="0" y="0" width="19" height="19"></rect>
                <path d="M15.276,1.121 C16.0866667,1.121 16.701,1.3585 17.119,1.8335 C17.537,2.3085 17.746,2.888 17.746,3.572 L17.746,13.661 C17.746,13.9776667 17.613,14.2626667 17.347,14.516 L14.174,17.556 C14.0093333,17.6953333 13.87,17.784 13.756,17.822 C13.642,17.86 13.4963333,17.879 13.319,17.879 L4.788,17.879 C4.49666667,17.879 4.20533333,17.8188333 3.914,17.6985 C3.62266667,17.5781667 3.363,17.4071667 3.135,17.1855 C2.907,16.9638333 2.72016667,16.6978333 2.5745,16.3875 C2.42883333,16.0771667 2.356,15.732 2.356,15.352 L2.356,3.572 C2.356,2.82466667 2.56183333,2.22933333 2.9735,1.786 C3.38516667,1.34266667 3.971,1.121 4.731,1.121 L15.276,1.121 Z M11.286,13.034 C11.4506667,13.034 11.59,12.977 11.704,12.863 C11.818,12.749 11.875,12.6096667 11.875,12.445 C11.875,12.2676667 11.818,12.1251667 11.704,12.0175 C11.59,11.9098333 11.4506667,11.856 11.286,11.856 L5.339,11.856 C5.17433333,11.856 5.035,11.9098333 4.921,12.0175 C4.807,12.1251667 4.75,12.2676667 4.75,12.445 C4.75,12.6096667 4.807,12.749 4.921,12.863 C5.035,12.977 5.17433333,13.034 5.339,13.034 L11.286,13.034 Z M13.661,9.462 C13.8256667,9.462 13.965,9.405 14.079,9.291 C14.193,9.177 14.25,9.03766667 14.25,8.873 C14.25,8.70833333 14.193,8.569 14.079,8.455 C13.965,8.341 13.8256667,8.284 13.661,8.284 L5.339,8.284 C5.17433333,8.284 5.035,8.341 4.921,8.455 C4.807,8.569 4.75,8.70833333 4.75,8.873 C4.75,9.03766667 4.807,9.177 4.921,9.291 C5.035,9.405 5.17433333,9.462 5.339,9.462 L13.661,9.462 Z M14.839,5.909 C15.0036667,5.909 15.143,5.852 15.257,5.738 C15.371,5.624 15.428,5.47833333 15.428,5.301 C15.428,5.13633333 15.371,4.997 15.257,4.883 C15.143,4.769 15.0036667,4.712 14.839,4.712 L5.339,4.712 C5.17433333,4.712 5.035,4.769 4.921,4.883 C4.807,4.997 4.75,5.13633333 4.75,5.301 C4.75,5.47833333 4.807,5.624 4.921,5.738 C5.035,5.852 5.17433333,5.909 5.339,5.909 L14.839,5.909 Z" id="形状" fill="#000000" fill-rule="nonzero"></path>
            </g>
        </g>
    </g>
</svg>