<?xml version="1.0" encoding="UTF-8"?>
<svg width="16px" height="16px" viewBox="0 0 16 16" version="1.1" xmlns="http://www.w3.org/2000/svg" xmlns:xlink="http://www.w3.org/1999/xlink">
    <title>日志备份</title>
    <defs>
        <filter id="filter-1">
            <feColorMatrix in="SourceGraphic" type="matrix" values="0 0 0 0 1.000000 0 0 0 0 1.000000 0 0 0 0 1.000000 0 0 0 1.000000 0"></feColorMatrix>
        </filter>
    </defs>
    <g id="页面-1" stroke="none" stroke-width="1" fill="none" fill-rule="evenodd" opacity="0.495978219">
        <g filter="url(#filter-1)" id="日志备份">
            <g>
                <rect id="矩形" fill="#000000" fill-rule="nonzero" opacity="0" x="0" y="0" width="16" height="16"></rect>
                <path d="M12.3938482,16 L3.60615589,16 C3.13719716,15.9978289 2.6883088,15.809451 2.35824368,15.4763084 C2.02817856,15.1431657 1.8439747,14.6925484 1.84613674,14.2235897 L1.84613674,2.66666667 C1.8439747,2.19770799 2.02817856,1.7470907 2.35824367,1.41394805 C2.68830879,1.0808054 3.13719716,0.892427499 3.60615589,0.890256406 L5.36205333,0.890256406 L5.36205333,3.55692308 L10.6379508,3.55692308 L10.6379508,0.890256406 L12.3979508,0.890256406 C13.3729023,0.897032167 14.158396,1.69170216 14.1538679,2.66666667 L14.1538679,14.2235897 C14.1560294,14.6925484 13.9718255,15.1431657 13.6417604,15.4763084 C13.3116953,15.809451 12.8628069,15.9978289 12.3938482,16 L12.3938482,16 Z M11.0769251,6.22358975 L4.92307897,6.22358975 C4.67837434,6.22358975 4.48000205,6.42196204 4.48000205,6.66666667 C4.48000205,6.9113713 4.67837434,7.10974359 4.92307897,7.10974359 L11.0769251,7.10974359 C11.3216298,7.10974359 11.520002,6.9113713 11.520002,6.66666667 C11.520002,6.42196204 11.3216298,6.22358975 11.0769251,6.22358975 L11.0769251,6.22358975 Z M11.0769251,8.89025641 L4.92307897,8.89025641 C4.67837434,8.89025641 4.48000205,9.0886287 4.48000205,9.33333333 C4.48000205,9.57803796 4.67837434,9.77641025 4.92307897,9.77641025 L11.0769251,9.77641025 C11.3216298,9.77641025 11.520002,9.57803796 11.520002,9.33333333 C11.520002,9.0886287 11.3216298,8.89025641 11.0769251,8.89025641 Z M11.0769251,11.5569231 L4.92307897,11.5569231 C4.67837434,11.5569231 4.48000205,11.7552954 4.48000205,12 C4.48000205,12.2447046 4.67837434,12.4430769 4.92307897,12.4430769 L11.0769251,12.4430769 C11.3216298,12.4430769 11.520002,12.2447046 11.520002,12 C11.520002,11.7552954 11.3216298,11.5569231 11.0769251,11.5569231 L11.0769251,11.5569231 Z M8.87795077,2.66666667 L7.12205333,2.66666667 C6.63424779,2.66215509 6.24182528,2.26423132 6.24410461,1.77641025 L6.24410461,0.890256406 C6.24191832,0.656318853 6.33275815,0.431095341 6.49663827,0.264137665 C6.66051838,0.0971799877 6.88401302,0.00216604163 7.11795077,0 L8.87795077,0 C9.36575629,0.00451158431 9.7581788,0.40243534 9.75589948,0.890256406 L9.75589948,1.77641025 C9.75808577,2.01034781 9.66724595,2.23557132 9.50336583,2.402529 C9.33948571,2.56948668 9.11599107,2.66450063 8.88205333,2.66666667 L8.87795077,2.66666667 Z" id="形状" fill="#000000" fill-rule="nonzero"></path>
            </g>
        </g>
    </g>
</svg>