<?xml version="1.0" encoding="UTF-8"?>
<svg width="18px" height="18px" viewBox="0 0 18 18" version="1.1" xmlns="http://www.w3.org/2000/svg" xmlns:xlink="http://www.w3.org/1999/xlink">
    <title>巡检任务配置备份</title>
    <defs>
        <filter id="filter-1">
            <feColorMatrix in="SourceGraphic" type="matrix" values="0 0 0 0 1.000000 0 0 0 0 1.000000 0 0 0 0 1.000000 0 0 0 1.000000 0"></feColorMatrix>
        </filter>
    </defs>
    <g id="页面-1" stroke="none" stroke-width="1" fill="none" fill-rule="evenodd">
        <g filter="url(#filter-1)" id="巡检任务配置备份">
            <g>
                <rect id="矩形" fill="#000000" fill-rule="nonzero" opacity="0" x="0" y="0" width="18" height="18"></rect>
                <path d="M9.64199784,10.2162548 C9.30004952,11.0594341 9.12111764,11.9598163 9.11468725,12.8696727 L8.53116017,13.2002256 C8.02634239,13.484888 7.41072274,13.4904074 6.90088222,13.2148419 L0.299943035,9.64509536 C0.119627558,9.54769959 0.00659972162,9.35989621 0.00494411024,9.1549647 C0.00332456068,8.95003318 0.113336731,8.76044752 0.292072729,8.66018262 L1.41977533,8.02718504 C1.59053975,7.93145496 1.7988081,7.93145496 1.96957252,8.02718504 L6.91437419,10.7930359 C7.41608238,11.0739359 8.02633405,11.0798689 8.53340883,10.8087765 L9.64087351,10.2162548 L9.64199784,10.2162548 Z M9.39464532,14.9226986 C9.5857472,15.5882907 9.87163325,16.2229198 10.2435142,16.807075 L8.53116017,17.7739985 C8.02634239,18.0586609 7.41072274,18.0641803 6.90088222,17.7886148 L0.301067367,14.2188682 C0.121319221,14.1213 0.00874121181,13.933809 0.00708702234,13.7292943 C0.00546897587,13.5247795 0.115032913,13.3355114 0.293197061,13.2350798 L1.42089966,12.6009579 C1.59166408,12.5052279 1.79993243,12.5052279 1.97069685,12.6009579 L6.9154985,15.3668088 C7.4172067,15.6477088 8.02745838,15.6536418 8.53453317,15.3825494 L9.39352099,14.9226986 L9.39464532,14.9226986 Z M8.5356575,0.201850893 L15.1365967,3.75473248 C15.3171444,3.85171312 15.430609,4.03926366 15.4327443,4.24419853 C15.43482,4.44913341 15.3252328,4.63897557 15.1467157,4.73964523 L8.53116017,8.47579256 C8.02634239,8.76045497 7.41072274,8.76597432 6.90088222,8.49040884 L0.299943035,4.9206623 C0.119627549,4.82326654 0.00659970568,4.63546316 0.00494409427,4.43053164 C0.00332454469,4.22560012 0.113336722,4.03601445 0.292072729,3.93574955 L6.91100119,0.217591506 C7.41446059,-0.0657726676 8.02793033,-0.0717122081 8.53678183,0.201850893 L8.5356575,0.201850893 Z M16.0889039,15.1273266 C14.9713202,16.0661418 13.3140584,16.0200443 12.2774265,14.9822881 C11.1800808,13.8860667 11.1913241,12.0950096 12.303286,10.9830476 C13.4163724,9.86996129 15.2063051,9.85871798 16.3036508,10.9560637 C17.3414071,11.9926956 17.3863802,13.6499575 16.4498137,14.7675411 C16.6527602,14.6984221 16.8773514,14.750754 17.0288434,14.9024607 L17.8226201,15.6962374 C18.0420791,15.9157626 18.0420791,16.2716131 17.8226201,16.4911384 L17.8113768,16.5023817 C17.5919809,16.7210924 17.236996,16.7210924 17.0176001,16.5023817 L16.2238234,15.7074807 C16.0716782,15.5557692 16.0193142,15.3306043 16.0889039,15.1273266 L16.0889039,15.1273266 Z M15.4817659,14.1604031 C16.1496177,13.4936756 16.1563637,12.4188165 15.4986308,11.7610837 C14.8313454,11.1027495 13.7567816,11.1097958 13.0981871,11.7768243 C12.4311586,12.4354188 12.4241122,13.5099826 13.0824465,14.1772681 C13.7496,14.8348522 14.8232975,14.8278083 15.4817659,14.1615274 L15.4817659,14.1604031 Z" id="形状" fill="#000000" fill-rule="nonzero"></path>
            </g>
        </g>
    </g>
</svg>