<?xml version="1.0" encoding="UTF-8"?>
<svg width="16px" height="16px" viewBox="0 0 16 16" version="1.1" xmlns="http://www.w3.org/2000/svg" xmlns:xlink="http://www.w3.org/1999/xlink">
    <title>统计分析备份</title>
    <defs>
        <filter id="filter-1">
            <feColorMatrix in="SourceGraphic" type="matrix" values="0 0 0 0 1.000000 0 0 0 0 1.000000 0 0 0 0 1.000000 0 0 0 1.000000 0"></feColorMatrix>
        </filter>
    </defs>
    <g id="页面-1" stroke="none" stroke-width="1" fill="none" fill-rule="evenodd" opacity="0.495978219">
        <g filter="url(#filter-1)" id="统计分析备份">
            <g>
                <rect id="矩形" fill="#000000" fill-rule="nonzero" opacity="0" x="1.24344979e-13" y="-1.23989707e-12" width="15.1703704" height="15.1703704"></rect>
                <path d="M15.9864979,13.6352825 L15.9864979,14.297594 C15.9864979,14.68127 15.6915398,14.9921665 15.327835,14.9921665 L0.838403007,14.9921665 C0.474890207,14.9921665 0.179740089,14.68127 0.179740089,14.297594 L0.179740089,13.6350905 L15.9864979,13.6350905 L15.9864979,13.6352825 Z M9.43789067,3.87823797 C9.78066422,3.87823797 10.0589157,4.14919231 10.0589157,4.48313249 L10.0589157,12.6768608 L6.10713024,12.6768608 L6.10713024,4.48294046 C6.10713024,4.14919231 6.38499766,3.87823797 6.72815527,3.87823797 L9.43789067,3.87823797 Z M4.53286827,0.173595126 L4.53286827,12.4001455 L0.179740089,12.4001455 L0.179740089,0.173595126 L4.5330603,0.173595126 L4.53286827,0.173595126 Z M15.302487,8.04586517 C15.680018,8.04586517 15.9863059,8.32238837 15.9863059,8.66343366 L15.9863059,12.396689 L11.6335617,12.396689 L11.6335617,8.66343366 C11.6335617,8.3225804 11.9398496,8.04586517 12.3173806,8.04586517 L15.302487,8.04586517 Z" id="形状" fill="#2684FF" fill-rule="nonzero"></path>
            </g>
        </g>
    </g>
</svg>